<svg width="175" height="70" viewBox="0 0 175 70" fill="none" xmlns="http://www.w3.org/2000/svg">
<path d="M7.95597 58.2727V67H7.1804L2.02415 59.6918H1.95597V67H1.15909V58.2727H1.9304L7.10369 65.5895H7.17188V58.2727H7.95597ZM11.9467 67.1491C11.5518 67.1491 11.1911 67.0724 10.8643 66.919C10.5376 66.7628 10.2777 66.5384 10.0845 66.2457C9.89134 65.9503 9.79474 65.5923 9.79474 65.1719C9.79474 64.848 9.85582 64.5753 9.97798 64.3537C10.1001 64.1321 10.2734 63.9503 10.4979 63.8082C10.7223 63.6662 10.9879 63.554 11.2947 63.4716C11.6016 63.3892 11.9396 63.3253 12.3089 63.2798C12.6754 63.2344 12.9851 63.1946 13.2379 63.1605C13.4936 63.1264 13.6882 63.0724 13.8217 62.9986C13.9553 62.9247 14.022 62.8054 14.022 62.6406V62.4872C14.022 62.0412 13.8885 61.6903 13.6214 61.4347C13.3572 61.1761 12.9766 61.0469 12.4794 61.0469C12.0078 61.0469 11.6229 61.1506 11.3246 61.358C11.0291 61.5653 10.8217 61.8097 10.7024 62.0909L9.98224 61.831C10.13 61.473 10.3345 61.1875 10.5959 60.9744C10.8572 60.7585 11.1499 60.6037 11.4737 60.5099C11.7976 60.4134 12.1257 60.3651 12.4581 60.3651C12.7081 60.3651 12.968 60.3977 13.2379 60.4631C13.5107 60.5284 13.7635 60.642 13.9964 60.804C14.2294 60.9631 14.4183 61.1861 14.5632 61.473C14.7081 61.7571 14.7805 62.1179 14.7805 62.5554V67H14.022V65.9645H13.9751C13.8842 66.1577 13.7493 66.3452 13.5703 66.527C13.3913 66.7088 13.1669 66.858 12.897 66.9744C12.6271 67.0909 12.3104 67.1491 11.9467 67.1491ZM12.049 66.4545C12.4524 66.4545 12.8018 66.3651 13.0973 66.1861C13.3928 66.0071 13.62 65.7699 13.7791 65.4744C13.9411 65.1761 14.022 64.848 14.022 64.4901V63.544C13.9652 63.598 13.87 63.6463 13.7365 63.6889C13.6058 63.7315 13.4538 63.7699 13.2805 63.804C13.1101 63.8352 12.9396 63.8622 12.7692 63.8849C12.5987 63.9077 12.4453 63.9276 12.3089 63.9446C11.9396 63.9901 11.6243 64.0611 11.3629 64.1577C11.1016 64.2543 10.9013 64.3878 10.7621 64.5582C10.6229 64.7259 10.5533 64.9418 10.5533 65.206C10.5533 65.6037 10.6953 65.9119 10.9794 66.1307C11.2635 66.3466 11.62 66.4545 12.049 66.4545ZM21.6307 60.4545L19.2401 67H18.4304L16.0398 60.4545H16.8622L18.8054 65.9986H18.8651L20.8082 60.4545H21.6307ZM23.1232 67V60.4545H23.886V67H23.1232ZM23.511 59.3295C23.3548 59.3295 23.2212 59.277 23.1104 59.1719C22.9996 59.0639 22.9442 58.9347 22.9442 58.7841C22.9442 58.6335 22.9996 58.5057 23.1104 58.4006C23.2212 58.2926 23.3548 58.2386 23.511 58.2386C23.6673 58.2386 23.8008 58.2926 23.9116 58.4006C24.0224 58.5057 24.0778 58.6335 24.0778 58.7841C24.0778 58.9347 24.0224 59.0639 23.9116 59.1719C23.8008 59.277 23.6673 59.3295 23.511 59.3295ZM28.3892 69.5909C27.9432 69.5909 27.5526 69.5327 27.2173 69.4162C26.8821 69.3026 26.5994 69.1463 26.3693 68.9474C26.1392 68.7486 25.9602 68.5256 25.8324 68.2784L26.4545 67.8693C26.5483 68.0341 26.6733 68.196 26.8295 68.3551C26.9886 68.5142 27.1946 68.6463 27.4474 68.7514C27.7031 68.8565 28.017 68.9091 28.3892 68.9091C28.9688 68.9091 29.4361 68.7642 29.7912 68.4744C30.1491 68.1847 30.3281 67.7344 30.3281 67.1236V65.6491H30.2599C30.1719 65.848 30.0455 66.0469 29.8807 66.2457C29.7159 66.4418 29.5 66.6051 29.233 66.7358C28.9688 66.8665 28.6406 66.9318 28.2486 66.9318C27.7259 66.9318 27.2614 66.8026 26.8551 66.544C26.4517 66.2855 26.1335 65.9162 25.9006 65.4361C25.6705 64.9531 25.5554 64.3778 25.5554 63.7102C25.5554 63.0483 25.6676 62.4659 25.892 61.9631C26.1193 61.4602 26.4361 61.0682 26.8423 60.7869C27.2486 60.5057 27.7216 60.3651 28.2614 60.3651C28.6619 60.3651 28.9943 60.4361 29.2585 60.5781C29.5227 60.7173 29.7344 60.8906 29.8935 61.098C30.0554 61.3054 30.1818 61.5071 30.2727 61.7031H30.3494V60.4545H31.0909V67.1705C31.0909 67.7244 30.973 68.1804 30.7372 68.5384C30.5014 68.8963 30.1804 69.1605 29.7741 69.331C29.3679 69.5043 28.9063 69.5909 28.3892 69.5909ZM28.3381 66.2372C28.7585 66.2372 29.1179 66.1364 29.4162 65.9347C29.7145 65.7301 29.9432 65.4375 30.1023 65.0568C30.2614 64.6761 30.3409 64.223 30.3409 63.6974C30.3409 63.1861 30.2628 62.733 30.1065 62.3381C29.9503 61.9403 29.723 61.6278 29.4247 61.4006C29.1293 61.1705 28.767 61.0554 28.3381 61.0554C27.9006 61.0554 27.5313 61.1733 27.2301 61.4091C26.929 61.6449 26.7017 61.9631 26.5483 62.3636C26.3949 62.7614 26.3182 63.206 26.3182 63.6974C26.3182 64.1974 26.3963 64.6392 26.5526 65.0227C26.7088 65.4034 26.9375 65.7017 27.2386 65.9176C27.5398 66.1307 27.9063 66.2372 28.3381 66.2372ZM34.9272 67.1491C34.5323 67.1491 34.1715 67.0724 33.8448 66.919C33.5181 66.7628 33.2582 66.5384 33.065 66.2457C32.8718 65.9503 32.7752 65.5923 32.7752 65.1719C32.7752 64.848 32.8363 64.5753 32.9585 64.3537C33.0806 64.1321 33.2539 63.9503 33.4783 63.8082C33.7028 63.6662 33.9684 63.554 34.2752 63.4716C34.582 63.3892 34.9201 63.3253 35.2894 63.2798C35.6559 63.2344 35.9656 63.1946 36.2184 63.1605C36.4741 63.1264 36.6687 63.0724 36.8022 62.9986C36.9357 62.9247 37.0025 62.8054 37.0025 62.6406V62.4872C37.0025 62.0412 36.869 61.6903 36.6019 61.4347C36.3377 61.1761 35.957 61.0469 35.4599 61.0469C34.9883 61.0469 34.6033 61.1506 34.305 61.358C34.0096 61.5653 33.8022 61.8097 33.6829 62.0909L32.9627 61.831C33.1104 61.473 33.315 61.1875 33.5763 60.9744C33.8377 60.7585 34.1303 60.6037 34.4542 60.5099C34.7781 60.4134 35.1062 60.3651 35.4386 60.3651C35.6886 60.3651 35.9485 60.3977 36.2184 60.4631C36.4911 60.5284 36.744 60.642 36.9769 60.804C37.2099 60.9631 37.3988 61.1861 37.5437 61.473C37.6886 61.7571 37.761 62.1179 37.761 62.5554V67H37.0025V65.9645H36.9556C36.8647 66.1577 36.7298 66.3452 36.5508 66.527C36.3718 66.7088 36.1474 66.858 35.8775 66.9744C35.6076 67.0909 35.2908 67.1491 34.9272 67.1491ZM35.0295 66.4545C35.4329 66.4545 35.7823 66.3651 36.0778 66.1861C36.3732 66.0071 36.6005 65.7699 36.7596 65.4744C36.9215 65.1761 37.0025 64.848 37.0025 64.4901V63.544C36.9457 63.598 36.8505 63.6463 36.717 63.6889C36.5863 63.7315 36.4343 63.7699 36.261 63.804C36.0906 63.8352 35.9201 63.8622 35.7496 63.8849C35.5792 63.9077 35.4258 63.9276 35.2894 63.9446C34.9201 63.9901 34.6048 64.0611 34.3434 64.1577C34.082 64.2543 33.8817 64.3878 33.7425 64.5582C33.6033 64.7259 33.5337 64.9418 33.5337 65.206C33.5337 65.6037 33.6758 65.9119 33.9599 66.1307C34.244 66.3466 34.6005 66.4545 35.0295 66.4545ZM42.3569 60.4545V61.1151H39.2333V60.4545H42.3569ZM40.2092 58.8864H40.9719V65.2912C40.9719 65.5639 41.0188 65.7784 41.1126 65.9347C41.2063 66.0881 41.3285 66.1974 41.479 66.2628C41.6296 66.3253 41.7901 66.3565 41.9606 66.3565C42.06 66.3565 42.1452 66.3509 42.2163 66.3395C42.2873 66.3253 42.3498 66.3111 42.4038 66.2969L42.5657 66.983C42.4918 67.0114 42.4009 67.0369 42.293 67.0597C42.185 67.0852 42.0515 67.098 41.8924 67.098C41.614 67.098 41.3455 67.0369 41.087 66.9148C40.8313 66.7926 40.6211 66.6108 40.4563 66.3693C40.2915 66.1278 40.2092 65.8281 40.2092 65.4702V58.8864ZM44.0881 67V60.4545H44.8509V67H44.0881ZM44.4759 59.3295C44.3196 59.3295 44.1861 59.277 44.0753 59.1719C43.9645 59.0639 43.9091 58.9347 43.9091 58.7841C43.9091 58.6335 43.9645 58.5057 44.0753 58.4006C44.1861 58.2926 44.3196 58.2386 44.4759 58.2386C44.6321 58.2386 44.7656 58.2926 44.8764 58.4006C44.9872 58.5057 45.0426 58.6335 45.0426 58.7841C45.0426 58.9347 44.9872 59.0639 44.8764 59.1719C44.7656 59.277 44.6321 59.3295 44.4759 59.3295ZM47.6154 62.9091V67H46.8569V60.4545H47.5941V61.4815H47.6623C47.8157 61.1463 48.0543 60.8778 48.3782 60.6761C48.7049 60.4716 49.1083 60.3693 49.5884 60.3693C50.0288 60.3693 50.4151 60.4616 50.7475 60.6463C51.0827 60.8281 51.3427 61.0966 51.5273 61.4517C51.7148 61.8068 51.8086 62.2429 51.8086 62.7599V67H51.0501V62.8068C51.0501 62.2699 50.8995 61.8452 50.5984 61.5327C50.3001 61.2202 49.8995 61.0639 49.3967 61.0639C49.0529 61.0639 48.7475 61.1378 48.4805 61.2855C48.2134 61.4332 48.0018 61.6463 47.8455 61.9247C47.6921 62.2003 47.6154 62.5284 47.6154 62.9091ZM56.3033 69.5909C55.8572 69.5909 55.4666 69.5327 55.1314 69.4162C54.7962 69.3026 54.5135 69.1463 54.2834 68.9474C54.0533 68.7486 53.8743 68.5256 53.7464 68.2784L54.3686 67.8693C54.4624 68.0341 54.5874 68.196 54.7436 68.3551C54.9027 68.5142 55.1087 68.6463 55.3615 68.7514C55.6172 68.8565 55.9311 68.9091 56.3033 68.9091C56.8828 68.9091 57.3501 68.7642 57.7053 68.4744C58.0632 68.1847 58.2422 67.7344 58.2422 67.1236V65.6491H58.174C58.0859 65.848 57.9595 66.0469 57.7947 66.2457C57.63 66.4418 57.4141 66.6051 57.147 66.7358C56.8828 66.8665 56.5547 66.9318 56.1626 66.9318C55.6399 66.9318 55.1754 66.8026 54.7692 66.544C54.3658 66.2855 54.0476 65.9162 53.8146 65.4361C53.5845 64.9531 53.4695 64.3778 53.4695 63.7102C53.4695 63.0483 53.5817 62.4659 53.8061 61.9631C54.0334 61.4602 54.3501 61.0682 54.7564 60.7869C55.1626 60.5057 55.6357 60.3651 56.1754 60.3651C56.576 60.3651 56.9084 60.4361 57.1726 60.5781C57.4368 60.7173 57.6484 60.8906 57.8075 61.098C57.9695 61.3054 58.0959 61.5071 58.1868 61.7031H58.2635V60.4545H59.005V67.1705C59.005 67.7244 58.8871 68.1804 58.6513 68.5384C58.4155 68.8963 58.0945 69.1605 57.6882 69.331C57.282 69.5043 56.8203 69.5909 56.3033 69.5909ZM56.2521 66.2372C56.6726 66.2372 57.032 66.1364 57.3303 65.9347C57.6286 65.7301 57.8572 65.4375 58.0163 65.0568C58.1754 64.6761 58.255 64.223 58.255 63.6974C58.255 63.1861 58.1768 62.733 58.0206 62.3381C57.8643 61.9403 57.6371 61.6278 57.3388 61.4006C57.0433 61.1705 56.6811 61.0554 56.2521 61.0554C55.8146 61.0554 55.4453 61.1733 55.1442 61.4091C54.843 61.6449 54.6158 61.9631 54.4624 62.3636C54.3089 62.7614 54.2322 63.206 54.2322 63.6974C54.2322 64.1974 54.3104 64.6392 54.4666 65.0227C54.6229 65.4034 54.8516 65.7017 55.1527 65.9176C55.4538 66.1307 55.8203 66.2372 56.2521 66.2372ZM66.9663 60.4545V61.1151H63.8427V60.4545H66.9663ZM64.8185 58.8864H65.5813V65.2912C65.5813 65.5639 65.6282 65.7784 65.7219 65.9347C65.8157 66.0881 65.9379 66.1974 66.0884 66.2628C66.239 66.3253 66.3995 66.3565 66.57 66.3565C66.6694 66.3565 66.7546 66.3509 66.8256 66.3395C66.8967 66.3253 66.9592 66.3111 67.0131 66.2969L67.1751 66.983C67.1012 67.0114 67.0103 67.0369 66.9023 67.0597C66.7944 67.0852 66.6609 67.098 66.5018 67.098C66.2234 67.098 65.9549 67.0369 65.6964 66.9148C65.4407 66.7926 65.2305 66.6108 65.0657 66.3693C64.9009 66.1278 64.8185 65.8281 64.8185 65.4702V58.8864ZM69.5881 62.9091V67H68.8295V58.2727H69.5881V61.4815H69.6562C69.8097 61.1435 70.0469 60.8736 70.3679 60.6719C70.6918 60.4702 71.1009 60.3693 71.5952 60.3693C72.0384 60.3693 72.4276 60.4602 72.7628 60.642C73.098 60.8239 73.3594 61.0923 73.5469 61.4474C73.7344 61.8026 73.8281 62.2401 73.8281 62.7599V67H73.0653V62.8068C73.0653 62.267 72.9148 61.8423 72.6136 61.5327C72.3153 61.2202 71.9119 61.0639 71.4034 61.0639C71.054 61.0639 70.7429 61.1378 70.4702 61.2855C70.1974 61.4332 69.9815 61.6463 69.8224 61.9247C69.6662 62.2003 69.5881 62.5284 69.5881 62.9091ZM78.4719 67.1364C77.8612 67.1364 77.3327 66.9943 76.8867 66.7102C76.4407 66.4233 76.0955 66.027 75.8512 65.5213C75.6097 65.0128 75.489 64.4276 75.489 63.7656C75.489 63.1065 75.6097 62.5213 75.8512 62.0099C76.0955 61.4957 76.4322 61.0937 76.8612 60.804C77.293 60.5114 77.7915 60.3651 78.3569 60.3651C78.712 60.3651 79.0543 60.4304 79.3839 60.5611C79.7134 60.6889 80.0089 60.8864 80.2702 61.1534C80.5344 61.4176 80.7433 61.7514 80.8967 62.1548C81.0501 62.5554 81.1268 63.0298 81.1268 63.5781V63.9531H76.0131V63.2841H80.3512C80.3512 62.8636 80.266 62.4858 80.0955 62.1506C79.9279 61.8125 79.6935 61.5455 79.3924 61.3494C79.0941 61.1534 78.7489 61.0554 78.3569 61.0554C77.9421 61.0554 77.5771 61.1662 77.2617 61.3878C76.9464 61.6094 76.6992 61.902 76.5202 62.2656C76.3441 62.6293 76.2546 63.027 76.2518 63.4588V63.8594C76.2518 64.3793 76.3413 64.8338 76.5202 65.223C76.7021 65.6094 76.9592 65.9091 77.2915 66.1222C77.6239 66.3352 78.0174 66.4418 78.4719 66.4418C78.7816 66.4418 79.0529 66.3935 79.2859 66.2969C79.5217 66.2003 79.7191 66.071 79.8782 65.9091C80.0401 65.7443 80.1623 65.5639 80.2447 65.3679L80.9648 65.6023C80.8654 65.8778 80.7021 66.1321 80.4748 66.3651C80.2504 66.598 79.9691 66.7855 79.631 66.9276C79.2958 67.0668 78.9094 67.1364 78.4719 67.1364ZM90.571 61.8906L89.8764 62.0866C89.8082 61.8906 89.7116 61.7131 89.5866 61.554C89.4616 61.3949 89.2983 61.2685 89.0966 61.1747C88.8977 61.081 88.6506 61.0341 88.3551 61.0341C87.9119 61.0341 87.5483 61.1392 87.2642 61.3494C86.9801 61.5597 86.8381 61.831 86.8381 62.1634C86.8381 62.4446 86.9347 62.6733 87.1278 62.8494C87.3239 63.0227 87.625 63.1605 88.0312 63.2628L89.0199 63.5057C89.5682 63.6392 89.9787 63.8509 90.2514 64.1406C90.527 64.4304 90.6648 64.794 90.6648 65.2315C90.6648 65.6009 90.5625 65.929 90.358 66.2159C90.1534 66.5028 89.8679 66.7287 89.5014 66.8935C89.1378 67.0554 88.7159 67.1364 88.2358 67.1364C87.5966 67.1364 87.0696 66.9929 86.6548 66.706C86.2401 66.4162 85.9744 65.9986 85.858 65.4531L86.5866 65.2741C86.6804 65.6634 86.8636 65.9574 87.1364 66.1562C87.4119 66.3551 87.7741 66.4545 88.223 66.4545C88.7259 66.4545 89.1278 66.3423 89.429 66.1179C89.7301 65.8906 89.8807 65.6065 89.8807 65.2656C89.8807 65.0014 89.7926 64.7798 89.6165 64.6009C89.4403 64.419 89.1733 64.2855 88.8153 64.2003L87.7457 63.9446C87.1776 63.8082 86.7571 63.5923 86.4844 63.2969C86.2116 63.0014 86.0753 62.6349 86.0753 62.1974C86.0753 61.8366 86.1733 61.5199 86.3693 61.2472C86.5653 60.9716 86.8352 60.7557 87.179 60.5994C87.5227 60.4432 87.9148 60.3651 88.3551 60.3651C88.9545 60.3651 89.4332 60.5014 89.7912 60.7741C90.152 61.044 90.4119 61.4162 90.571 61.8906ZM93.016 64.5284L93.0075 63.5355H93.1779L96.2461 60.4545H97.2049L94.1751 63.4886L94.1069 63.5014L93.016 64.5284ZM92.3256 67V58.2727H93.0842V67H92.3256ZM96.4038 67L93.7447 63.6378L94.2901 63.1136L97.3754 67H96.4038ZM98.6388 67V60.4545H99.4016V67H98.6388ZM99.0266 59.3295C98.8704 59.3295 98.7369 59.277 98.6261 59.1719C98.5153 59.0639 98.4599 58.9347 98.4599 58.7841C98.4599 58.6335 98.5153 58.5057 98.6261 58.4006C98.7369 58.2926 98.8704 58.2386 99.0266 58.2386C99.1829 58.2386 99.3164 58.2926 99.4272 58.4006C99.538 58.5057 99.5934 58.6335 99.5934 58.7841C99.5934 58.9347 99.538 59.0639 99.4272 59.1719C99.3164 59.277 99.1829 59.3295 99.0266 59.3295ZM104.054 67.1364C103.443 67.1364 102.915 66.9943 102.469 66.7102C102.023 66.4233 101.678 66.027 101.433 65.5213C101.192 65.0128 101.071 64.4276 101.071 63.7656C101.071 63.1065 101.192 62.5213 101.433 62.0099C101.678 61.4957 102.014 61.0937 102.443 60.804C102.875 60.5114 103.374 60.3651 103.939 60.3651C104.294 60.3651 104.636 60.4304 104.966 60.5611C105.295 60.6889 105.591 60.8864 105.852 61.1534C106.116 61.4176 106.325 61.7514 106.479 62.1548C106.632 62.5554 106.709 63.0298 106.709 63.5781V63.9531H101.595V63.2841H105.933C105.933 62.8636 105.848 62.4858 105.678 62.1506C105.51 61.8125 105.276 61.5455 104.974 61.3494C104.676 61.1534 104.331 61.0554 103.939 61.0554C103.524 61.0554 103.159 61.1662 102.844 61.3878C102.528 61.6094 102.281 61.902 102.102 62.2656C101.926 62.6293 101.837 63.027 101.834 63.4588V63.8594C101.834 64.3793 101.923 64.8338 102.102 65.223C102.284 65.6094 102.541 65.9091 102.874 66.1222C103.206 66.3352 103.599 66.4418 104.054 66.4418C104.364 66.4418 104.635 66.3935 104.868 66.2969C105.104 66.2003 105.301 66.071 105.46 65.9091C105.622 65.7443 105.744 65.5639 105.827 65.3679L106.547 65.6023C106.447 65.8778 106.284 66.1321 106.057 66.3651C105.832 66.598 105.551 66.7855 105.213 66.9276C104.878 67.0668 104.491 67.1364 104.054 67.1364ZM112.778 61.8906L112.083 62.0866C112.015 61.8906 111.919 61.7131 111.794 61.554C111.669 61.3949 111.505 61.2685 111.304 61.1747C111.105 61.081 110.858 61.0341 110.562 61.0341C110.119 61.0341 109.755 61.1392 109.471 61.3494C109.187 61.5597 109.045 61.831 109.045 62.1634C109.045 62.4446 109.142 62.6733 109.335 62.8494C109.531 63.0227 109.832 63.1605 110.238 63.2628L111.227 63.5057C111.775 63.6392 112.186 63.8509 112.458 64.1406C112.734 64.4304 112.872 64.794 112.872 65.2315C112.872 65.6009 112.77 65.929 112.565 66.2159C112.36 66.5028 112.075 66.7287 111.708 66.8935C111.345 67.0554 110.923 67.1364 110.443 67.1364C109.804 67.1364 109.277 66.9929 108.862 66.706C108.447 66.4162 108.181 65.9986 108.065 65.4531L108.794 65.2741C108.887 65.6634 109.071 65.9574 109.343 66.1562C109.619 66.3551 109.981 66.4545 110.43 66.4545C110.933 66.4545 111.335 66.3423 111.636 66.1179C111.937 65.8906 112.088 65.6065 112.088 65.2656C112.088 65.0014 112 64.7798 111.824 64.6009C111.647 64.419 111.38 64.2855 111.022 64.2003L109.953 63.9446C109.385 63.8082 108.964 63.5923 108.691 63.2969C108.419 63.0014 108.282 62.6349 108.282 62.1974C108.282 61.8366 108.38 61.5199 108.576 61.2472C108.772 60.9716 109.042 60.7557 109.386 60.5994C109.73 60.4432 110.122 60.3651 110.562 60.3651C111.162 60.3651 111.64 60.5014 111.998 60.7741C112.359 61.044 112.619 61.4162 112.778 61.8906ZM115.138 67.0639C114.97 67.0639 114.825 67.0043 114.703 66.8849C114.584 66.7628 114.524 66.6179 114.524 66.4503C114.524 66.2798 114.584 66.1349 114.703 66.0156C114.825 65.8963 114.97 65.8366 115.138 65.8366C115.308 65.8366 115.453 65.8963 115.572 66.0156C115.692 66.1349 115.751 66.2798 115.751 66.4503C115.751 66.5611 115.723 66.6634 115.666 66.7571C115.612 66.8509 115.538 66.9261 115.445 66.983C115.354 67.0369 115.251 67.0639 115.138 67.0639ZM126.027 60.4545C125.978 59.9687 125.764 59.5824 125.383 59.2955C125.002 59.0085 124.524 58.8651 123.947 58.8651C123.541 58.8651 123.183 58.9347 122.873 59.0739C122.566 59.2131 122.325 59.4062 122.149 59.6534C121.975 59.8977 121.889 60.1761 121.889 60.4886C121.889 60.7188 121.939 60.9205 122.038 61.0938C122.137 61.267 122.271 61.4162 122.439 61.5412C122.609 61.6634 122.797 61.7685 123.001 61.8565C123.208 61.9446 123.417 62.0185 123.627 62.0781L124.548 62.3423C124.826 62.419 125.105 62.517 125.383 62.6364C125.662 62.7557 125.916 62.9062 126.146 63.0881C126.379 63.267 126.565 63.4872 126.704 63.7486C126.846 64.0071 126.917 64.3182 126.917 64.6818C126.917 65.1477 126.797 65.5668 126.555 65.9389C126.314 66.3111 125.967 66.6065 125.515 66.8253C125.064 67.0412 124.522 67.1491 123.892 67.1491C123.298 67.1491 122.782 67.0511 122.345 66.8551C121.907 66.6562 121.564 66.3821 121.314 66.0327C121.064 65.6832 120.923 65.2784 120.892 64.8182H121.71C121.738 65.1619 121.852 65.4531 122.051 65.6918C122.25 65.9304 122.508 66.1122 122.826 66.2372C123.145 66.3594 123.5 66.4205 123.892 66.4205C124.326 66.4205 124.713 66.348 125.051 66.2031C125.392 66.0554 125.659 65.8509 125.852 65.5895C126.048 65.3253 126.146 65.0185 126.146 64.669C126.146 64.3736 126.069 64.1264 125.916 63.9276C125.762 63.7259 125.548 63.5568 125.272 63.4205C125 63.2841 124.683 63.1634 124.322 63.0582L123.278 62.7514C122.593 62.5469 122.062 62.2642 121.684 61.9034C121.306 61.5426 121.118 61.0824 121.118 60.5227C121.118 60.054 121.243 59.642 121.493 59.2869C121.745 58.929 122.086 58.6506 122.515 58.4517C122.947 58.25 123.431 58.1491 123.968 58.1491C124.511 58.1491 124.991 58.2486 125.409 58.4474C125.826 58.6463 126.157 58.9205 126.402 59.2699C126.649 59.6165 126.781 60.0114 126.798 60.4545H126.027ZM128.686 67V60.4545H129.449V67H128.686ZM129.074 59.3295C128.917 59.3295 128.784 59.277 128.673 59.1719C128.562 59.0639 128.507 58.9347 128.507 58.7841C128.507 58.6335 128.562 58.5057 128.673 58.4006C128.784 58.2926 128.917 58.2386 129.074 58.2386C129.23 58.2386 129.363 58.2926 129.474 58.4006C129.585 58.5057 129.64 58.6335 129.64 58.7841C129.64 58.9347 129.585 59.0639 129.474 59.1719C129.363 59.277 129.23 59.3295 129.074 59.3295ZM131.455 67V60.4545H132.192V61.4602H132.26C132.391 61.1222 132.608 60.8565 132.912 60.6634C133.219 60.4673 133.587 60.3693 134.016 60.3693C134.467 60.3693 134.838 60.4759 135.128 60.6889C135.42 60.8991 135.639 61.1889 135.784 61.5582H135.839C135.987 61.1946 136.227 60.9062 136.56 60.6932C136.895 60.4773 137.301 60.3693 137.778 60.3693C138.386 60.3693 138.866 60.5611 139.219 60.9446C139.571 61.3253 139.747 61.8821 139.747 62.6151V67H138.989V62.6151C138.989 62.098 138.857 61.7102 138.592 61.4517C138.328 61.1932 137.98 61.0639 137.548 61.0639C137.048 61.0639 136.663 61.2173 136.393 61.5241C136.124 61.831 135.989 62.2202 135.989 62.6918V67H135.213V62.5469C135.213 62.1037 135.089 61.7457 134.842 61.473C134.595 61.2003 134.247 61.0639 133.798 61.0639C133.497 61.0639 133.226 61.1378 132.984 61.2855C132.746 61.4332 132.557 61.6392 132.418 61.9034C132.281 62.1648 132.213 62.4659 132.213 62.8068V67H131.455ZM141.755 69.4545V60.4545H142.493V61.7031H142.582C142.673 61.5071 142.798 61.3068 142.957 61.1023C143.116 60.8949 143.326 60.7202 143.588 60.5781C143.852 60.4361 144.184 60.3651 144.585 60.3651C145.125 60.3651 145.596 60.5071 146 60.7912C146.406 61.0724 146.721 61.4673 146.946 61.9759C147.173 62.4815 147.287 63.071 147.287 63.7443C147.287 64.4205 147.173 65.0128 146.946 65.5213C146.721 66.0298 146.406 66.4261 146 66.7102C145.596 66.9943 145.127 67.1364 144.593 67.1364C144.199 67.1364 143.868 67.0653 143.6 66.9233C143.336 66.7812 143.122 66.6065 142.957 66.3991C142.795 66.1889 142.67 65.9844 142.582 65.7855H142.514V69.4545H141.755ZM142.505 63.7315C142.505 64.2599 142.583 64.7287 142.74 65.1378C142.899 65.544 143.126 65.8636 143.422 66.0966C143.72 66.3267 144.081 66.4418 144.504 66.4418C144.939 66.4418 145.305 66.3224 145.603 66.0838C145.904 65.8423 146.133 65.517 146.289 65.108C146.449 64.6989 146.528 64.2401 146.528 63.7315C146.528 63.2287 146.45 62.7756 146.294 62.3722C146.14 61.9687 145.913 61.6491 145.612 61.4134C145.311 61.1747 144.941 61.0554 144.504 61.0554C144.078 61.0554 143.716 61.1705 143.417 61.4006C143.119 61.6278 142.892 61.9432 142.735 62.3466C142.582 62.7472 142.505 63.2088 142.505 63.7315ZM149.709 58.2727V67H148.951V58.2727H149.709ZM151.725 67V60.4545H152.488V67H151.725ZM152.113 59.3295C151.956 59.3295 151.823 59.277 151.712 59.1719C151.601 59.0639 151.546 58.9347 151.546 58.7841C151.546 58.6335 151.601 58.5057 151.712 58.4006C151.823 58.2926 151.956 58.2386 152.113 58.2386C152.269 58.2386 152.402 58.2926 152.513 58.4006C152.624 58.5057 152.679 58.6335 152.679 58.7841C152.679 58.9347 152.624 59.0639 152.513 59.1719C152.402 59.277 152.269 59.3295 152.113 59.3295ZM157.187 60.4545V61.1151H153.969V60.4545H157.187ZM154.975 67V59.4957C154.975 59.1435 155.056 58.8466 155.218 58.6051C155.383 58.3636 155.597 58.1804 155.862 58.0554C156.126 57.9304 156.406 57.8679 156.701 57.8679C156.9 57.8679 157.065 57.8849 157.195 57.919C157.329 57.9503 157.434 57.9815 157.511 58.0128L157.289 58.6776C157.232 58.6605 157.163 58.6406 157.08 58.6179C156.998 58.5952 156.894 58.5838 156.769 58.5838C156.44 58.5838 156.185 58.6761 156.006 58.8608C155.827 59.0455 155.738 59.3097 155.738 59.6534L155.734 67H154.975ZM158.709 67V60.4545H159.472V67H158.709ZM159.097 59.3295C158.941 59.3295 158.807 59.277 158.696 59.1719C158.586 59.0639 158.53 58.9347 158.53 58.7841C158.53 58.6335 158.586 58.5057 158.696 58.4006C158.807 58.2926 158.941 58.2386 159.097 58.2386C159.253 58.2386 159.387 58.2926 159.498 58.4006C159.608 58.5057 159.664 58.6335 159.664 58.7841C159.664 58.9347 159.608 59.0639 159.498 59.1719C159.387 59.277 159.253 59.3295 159.097 59.3295ZM164.124 67.1364C163.513 67.1364 162.985 66.9943 162.539 66.7102C162.093 66.4233 161.748 66.027 161.504 65.5213C161.262 65.0128 161.141 64.4276 161.141 63.7656C161.141 63.1065 161.262 62.5213 161.504 62.0099C161.748 61.4957 162.085 61.0937 162.513 60.804C162.945 60.5114 163.444 60.3651 164.009 60.3651C164.364 60.3651 164.707 60.4304 165.036 60.5611C165.366 60.6889 165.661 60.8864 165.923 61.1534C166.187 61.4176 166.396 61.7514 166.549 62.1548C166.702 62.5554 166.779 63.0298 166.779 63.5781V63.9531H161.665V63.2841H166.004C166.004 62.8636 165.918 62.4858 165.748 62.1506C165.58 61.8125 165.346 61.5455 165.045 61.3494C164.746 61.1534 164.401 61.0554 164.009 61.0554C163.594 61.0554 163.229 61.1662 162.914 61.3878C162.599 61.6094 162.352 61.902 162.173 62.2656C161.996 62.6293 161.907 63.027 161.904 63.4588V63.8594C161.904 64.3793 161.994 64.8338 162.173 65.223C162.354 65.6094 162.612 65.9091 162.944 66.1222C163.276 66.3352 163.67 66.4418 164.124 66.4418C164.434 66.4418 164.705 66.3935 164.938 66.2969C165.174 66.2003 165.371 66.071 165.531 65.9091C165.692 65.7443 165.815 65.5639 165.897 65.3679L166.617 65.6023C166.518 65.8778 166.354 66.1321 166.127 66.3651C165.903 66.598 165.621 66.7855 165.283 66.9276C164.948 67.0668 164.562 67.1364 164.124 67.1364ZM170.807 67.1364C170.27 67.1364 169.8 66.9943 169.397 66.7102C168.993 66.4261 168.678 66.0298 168.451 65.5213C168.226 65.0128 168.114 64.4205 168.114 63.7443C168.114 63.071 168.226 62.4815 168.451 61.9759C168.678 61.4673 168.995 61.0724 169.401 60.7912C169.807 60.5071 170.28 60.3651 170.82 60.3651C171.218 60.3651 171.549 60.4361 171.813 60.5781C172.077 60.7173 172.289 60.8906 172.448 61.098C172.607 61.3054 172.73 61.5071 172.819 61.7031H172.887V58.2727H173.65V67H172.908V65.7855H172.819C172.73 65.9844 172.605 66.1889 172.444 66.3991C172.282 66.6065 172.067 66.7812 171.8 66.9233C171.536 67.0653 171.205 67.1364 170.807 67.1364ZM170.897 66.4418C171.32 66.4418 171.681 66.3267 171.979 66.0966C172.277 65.8636 172.505 65.544 172.661 65.1378C172.82 64.7287 172.9 64.2599 172.9 63.7315C172.9 63.2088 172.821 62.7472 172.665 62.3466C172.509 61.9432 172.282 61.6278 171.983 61.4006C171.685 61.1705 171.323 61.0554 170.897 61.0554C170.459 61.0554 170.09 61.1747 169.789 61.4134C169.49 61.6491 169.263 61.9687 169.107 62.3722C168.953 62.7756 168.877 63.2287 168.877 63.7315C168.877 64.2401 168.955 64.6989 169.111 65.108C169.267 65.517 169.495 65.8423 169.793 66.0838C170.094 66.3224 170.462 66.4418 170.897 66.4418Z" fill="#161617" fill-opacity="0.8"/>
<path d="M23.9716 35.4091C22.3949 35.4091 21.0185 34.9744 19.8423 34.1051C18.6662 33.2358 17.7543 32.0384 17.1065 30.5128C16.4673 28.9787 16.1477 27.2188 16.1477 25.233C16.1477 23.2642 16.4716 21.517 17.1193 19.9915C17.7756 18.4574 18.6918 17.2557 19.8679 16.3864C21.044 15.5085 22.4162 15.0696 23.9844 15.0696C25.1094 15.0696 26.0852 15.2869 26.9119 15.7216C27.7472 16.1477 28.446 16.7145 29.0085 17.4219C29.5795 18.1293 30.0142 18.9048 30.3125 19.7486H30.4659V8.81818H32.0128V35H30.5043V30.7173H30.3125C29.9972 31.5611 29.5582 32.3409 28.9957 33.0568C28.4332 33.7642 27.7344 34.3352 26.8991 34.7699C26.0639 35.196 25.0881 35.4091 23.9716 35.4091ZM24.1122 33.9645C25.4418 33.9645 26.5795 33.5852 27.5256 32.8267C28.4801 32.0597 29.2088 31.0199 29.7116 29.7074C30.223 28.3864 30.4787 26.8906 30.4787 25.2202C30.4787 23.5497 30.223 22.0625 29.7116 20.7585C29.2088 19.446 28.4801 18.4148 27.5256 17.6648C26.5795 16.9062 25.4418 16.527 24.1122 16.527C22.7656 16.527 21.6108 16.9105 20.6477 17.6776C19.6932 18.4361 18.9602 19.4716 18.4489 20.7841C17.946 22.0966 17.6946 23.5753 17.6946 25.2202C17.6946 26.8651 17.946 28.348 18.4489 29.669C18.9602 30.9901 19.6932 32.0384 20.6477 32.8139C21.6108 33.581 22.7656 33.9645 24.1122 33.9645ZM36.8713 35V15.3636H38.3926V18.4318H38.5332C38.9593 17.4261 39.6795 16.6207 40.6937 16.0156C41.7079 15.402 42.8627 15.0952 44.1582 15.0952C44.2945 15.0952 44.4309 15.0952 44.5673 15.0952C44.7036 15.0952 44.8315 15.0994 44.9508 15.108V16.6804C44.8485 16.6719 44.7249 16.6591 44.5801 16.642C44.4437 16.6165 44.2732 16.6037 44.0687 16.6037C42.9778 16.6037 42.0062 16.8381 41.1539 17.3068C40.3102 17.7756 39.6454 18.4233 39.1596 19.25C38.6738 20.0682 38.4309 21.0057 38.4309 22.0625V35H36.8713ZM53.6828 35.4091C52.0635 35.4091 50.6232 34.9744 49.3618 34.1051C48.1005 33.2273 47.1076 32.0213 46.3831 30.4872C45.6587 28.9531 45.2965 27.206 45.2965 25.2457C45.2965 23.277 45.6587 21.5298 46.3831 20.0043C47.1076 18.4702 48.1005 17.2642 49.3618 16.3864C50.6232 15.5085 52.0635 15.0696 53.6828 15.0696C55.3022 15.0696 56.7425 15.5085 58.0039 16.3864C59.2652 17.2642 60.2581 18.4702 60.9826 20.0043C61.707 21.5384 62.0692 23.2855 62.0692 25.2457C62.0692 27.206 61.707 28.9531 60.9826 30.4872C60.2581 32.0213 59.2652 33.2273 58.0039 34.1051C56.7425 34.9744 55.3022 35.4091 53.6828 35.4091ZM53.6828 33.9645C55.055 33.9645 56.2524 33.5767 57.2752 32.8011C58.3064 32.0256 59.1033 30.9773 59.6658 29.6562C60.2368 28.3352 60.5223 26.8651 60.5223 25.2457C60.5223 23.6264 60.2368 22.1605 59.6658 20.848C59.0948 19.527 58.2979 18.4787 57.2752 17.7031C56.2524 16.919 55.055 16.527 53.6828 16.527C52.3107 16.527 51.1132 16.919 50.0905 17.7031C49.0678 18.4787 48.2709 19.527 47.6999 20.848C47.1289 22.1605 46.8434 23.6264 46.8434 25.2457C46.8434 26.8651 47.1246 28.3352 47.6871 29.6562C48.2581 30.9773 49.055 32.0256 50.0777 32.8011C51.109 33.5767 52.3107 33.9645 53.6828 33.9645ZM66.8414 22.267V35H65.2817V15.3636H66.803V18.4702H66.9564C67.4167 17.456 68.1539 16.642 69.1681 16.0284C70.1823 15.4148 71.3883 15.108 72.786 15.108C74.107 15.108 75.2661 15.3892 76.2633 15.9517C77.2689 16.5142 78.053 17.3153 78.6155 18.3551C79.1865 19.3864 79.4721 20.6179 79.4721 22.0497V35H77.9124V22.1136C77.9124 20.4432 77.4138 19.1009 76.4167 18.0866C75.428 17.0639 74.1198 16.5526 72.4919 16.5526C71.401 16.5526 70.4294 16.7912 69.5772 17.2685C68.7249 17.7457 68.0559 18.4148 67.5701 19.2756C67.0843 20.1278 66.8414 21.125 66.8414 22.267ZM91.4513 35.4091C89.6785 35.4091 88.1359 34.9702 86.8234 34.0923C85.5109 33.2145 84.4967 32.0128 83.7808 30.4872C83.0649 28.9616 82.7069 27.223 82.7069 25.2713C82.7069 23.3111 83.0649 21.5639 83.7808 20.0298C84.5052 18.4957 85.4981 17.2855 86.7595 16.3991C88.0209 15.5128 89.4612 15.0696 91.0805 15.0696C92.18 15.0696 93.2197 15.2912 94.1998 15.7344C95.1885 16.169 96.0578 16.7997 96.8078 17.6264C97.5663 18.4531 98.1587 19.4503 98.5848 20.6179C99.0194 21.7855 99.2368 23.098 99.2368 24.5554V25.527H83.6913V24.108H97.6771C97.6771 22.6847 97.3873 21.402 96.8078 20.2599C96.2283 19.1179 95.4399 18.2102 94.4427 17.5369C93.4456 16.8636 92.3248 16.527 91.0805 16.527C89.7765 16.527 88.6132 16.8935 87.5905 17.6264C86.5763 18.3509 85.7709 19.331 85.1743 20.5668C84.5862 21.8026 84.2794 23.1832 84.2538 24.7088V25.348C84.2538 26.9844 84.5393 28.4545 85.1104 29.7585C85.6899 31.054 86.5166 32.081 87.5905 32.8395C88.6643 33.5895 89.9513 33.9645 91.4513 33.9645C92.5251 33.9645 93.4413 33.7855 94.1998 33.4276C94.9669 33.0611 95.5933 32.6179 96.0791 32.098C96.5649 31.5781 96.9314 31.0753 97.1785 30.5895L98.5976 31.1648C98.2993 31.821 97.8348 32.4773 97.2041 33.1335C96.5819 33.7812 95.7893 34.3224 94.8263 34.7571C93.8717 35.1918 92.7467 35.4091 91.4513 35.4091ZM123.821 21.9091C123.821 24.6108 123.352 26.9716 122.415 28.9915C121.477 31.0028 120.173 32.5668 118.503 33.6832C116.841 34.7997 114.923 35.358 112.75 35.358C110.568 35.358 108.642 34.7997 106.972 33.6832C105.31 32.5582 104.01 30.9901 103.073 28.9787C102.135 26.9588 101.666 24.6023 101.666 21.9091C101.666 19.2074 102.135 16.8509 103.073 14.8395C104.019 12.8281 105.323 11.2642 106.984 10.1477C108.646 9.02273 110.568 8.46023 112.75 8.46023C114.923 8.46023 116.841 9.01846 118.503 10.1349C120.173 11.2514 121.477 12.8196 122.415 14.8395C123.352 16.8509 123.821 19.2074 123.821 21.9091ZM122.261 21.9091C122.261 19.4801 121.852 17.375 121.034 15.5938C120.225 13.8125 119.104 12.4361 117.672 11.4645C116.24 10.4844 114.599 9.99432 112.75 9.99432C110.901 9.99432 109.26 10.4801 107.828 11.4517C106.396 12.4148 105.271 13.7912 104.453 15.581C103.644 17.3622 103.239 19.4716 103.239 21.9091C103.239 24.321 103.639 26.4219 104.44 28.2116C105.25 29.9929 106.371 31.3736 107.803 32.3537C109.234 33.3338 110.884 33.8239 112.75 33.8239C114.599 33.8239 116.24 33.3381 117.672 32.3665C119.104 31.3864 120.225 30.0057 121.034 28.2244C121.852 26.4432 122.261 24.3381 122.261 21.9091ZM127.356 42.3636V15.3636H128.878V19.7486H129.069C129.376 18.9048 129.807 18.1293 130.361 17.4219C130.923 16.7145 131.618 16.1477 132.444 15.7216C133.28 15.2869 134.26 15.0696 135.385 15.0696C136.97 15.0696 138.351 15.5043 139.527 16.3736C140.703 17.2429 141.615 18.4446 142.263 19.9787C142.91 21.5043 143.234 23.2557 143.234 25.233C143.234 27.2102 142.906 28.9659 142.25 30.5C141.602 32.0256 140.69 33.2273 139.514 34.1051C138.346 34.9744 136.979 35.4091 135.41 35.4091C134.294 35.4091 133.314 35.196 132.47 34.7699C131.635 34.3437 130.932 33.777 130.361 33.0696C129.798 32.3537 129.368 31.5696 129.069 30.7173H128.916V42.3636H127.356ZM128.89 25.2202C128.89 26.8906 129.146 28.3864 129.658 29.7074C130.169 31.0199 130.902 32.0597 131.856 32.8267C132.811 33.5852 133.949 33.9645 135.27 33.9645C136.608 33.9645 137.754 33.581 138.709 32.8139C139.672 32.0384 140.405 30.9901 140.908 29.669C141.419 28.348 141.675 26.8651 141.675 25.2202C141.675 23.5753 141.423 22.0966 140.92 20.7841C140.417 19.4716 139.689 18.4361 138.734 17.6776C137.78 16.9105 136.625 16.527 135.27 16.527C133.932 16.527 132.785 16.9062 131.831 17.6648C130.885 18.4148 130.156 19.446 129.645 20.7585C129.142 22.0625 128.89 23.5497 128.89 25.2202ZM158.943 19.5952L157.499 19.9787C157.268 19.2628 156.94 18.6449 156.514 18.125C156.088 17.6051 155.551 17.2045 154.903 16.9233C154.264 16.6335 153.497 16.4886 152.602 16.4886C151.162 16.4886 149.982 16.8466 149.061 17.5625C148.149 18.2784 147.693 19.2116 147.693 20.3622C147.693 21.2997 148.004 22.0753 148.626 22.6889C149.249 23.294 150.199 23.7543 151.477 24.0696L154.494 24.8239C156.045 25.2074 157.213 25.8295 157.997 26.6903C158.781 27.5426 159.173 28.6037 159.173 29.8736C159.173 30.956 158.879 31.9148 158.291 32.75C157.703 33.5852 156.889 34.2372 155.849 34.706C154.818 35.1747 153.617 35.4091 152.244 35.4091C150.412 35.4091 148.908 34.983 147.732 34.1307C146.555 33.2699 145.801 32.0384 145.469 30.4361L146.965 30.0526C147.246 31.331 147.83 32.3068 148.716 32.9801C149.611 33.6449 150.783 33.9773 152.232 33.9773C153.834 33.9773 155.125 33.598 156.105 32.8395C157.094 32.081 157.588 31.1094 157.588 29.9247C157.588 29.0213 157.298 28.2585 156.719 27.6364C156.139 27.0142 155.261 26.5582 154.085 26.2685L150.953 25.5014C149.351 25.1094 148.149 24.483 147.348 23.6222C146.547 22.7528 146.146 21.6832 146.146 20.4134C146.146 19.3565 146.423 18.4276 146.977 17.6264C147.531 16.8253 148.294 16.1989 149.266 15.7472C150.237 15.2955 151.349 15.0696 152.602 15.0696C154.264 15.0696 155.619 15.4616 156.668 16.2457C157.716 17.0298 158.474 18.1463 158.943 19.5952Z" fill="#161617" fill-opacity="0.8"/>
<rect x="3" y="44" width="170" height="5" fill="#161617" fill-opacity="0.8"/>
<rect x="3" y="44" width="60" height="5" fill="white" fill-opacity="0.8"/>
</svg>
